<svg width="18" height="18" viewBox="0 0 18 18" fill="none" xmlns="http://www.w3.org/2000/svg">
<path d="M14.2965 15.1637C12.8308 16.6295 9.07712 15.2522 5.91245 12.0875C2.74779 8.92289 1.37054 5.16921 2.83628 3.70346L3.80135 2.73839C4.4676 2.07214 5.56541 2.08975 6.25338 2.77772L7.74819 4.27254C8.43616 4.96051 8.45378 6.05832 7.78753 6.72457L7.58024 6.93185C7.22053 7.29157 7.18534 7.87186 7.51958 8.2769C7.84198 8.66759 8.18955 9.05674 8.56641 9.43359C8.94326 9.81045 9.33241 10.158 9.7231 10.4804C10.1281 10.8147 10.7084 10.7795 11.0681 10.4198L11.2754 10.2125C11.9417 9.54623 13.0395 9.56384 13.7275 10.2518L15.2223 11.7466C15.9102 12.4346 15.9279 13.5324 15.2616 14.1986L14.2965 15.1637Z" stroke="#797979" stroke-width="1.125"/>
</svg>
