<svg width="116" height="30" viewBox="0 0 116 30" fill="none" xmlns="http://www.w3.org/2000/svg">
<path d="M13.0885 3V8.09353C16.3822 8.61151 18.9826 11.4604 18.9826 14.9137C18.9826 18.7122 15.8622 21.8201 12.0483 21.8201C8.40782 21.8201 5.46075 19.0576 5.11403 15.518H0C0.346714 21.9065 5.54743 27 12.0483 27C18.7226 27 24.0966 21.6475 24.0966 15C24.0966 8.69784 19.2426 3.60432 13.0885 3Z" fill="#2952BB"/>
<path d="M11.7016 3H0V8.00719H11.7016V3Z" fill="#2952BB"/>
<path d="M9.01456 9.30215H0V14.3957H9.01456V9.30215Z" fill="#2952BB"/>
<path d="M41.5527 23.788C39.1527 23.788 37.2807 23.124 35.9367 21.796C34.6087 20.468 33.9447 18.572 33.9447 16.108V6.7H37.8327V15.964C37.8327 18.972 39.0807 20.476 41.5767 20.476C42.7927 20.476 43.7207 20.116 44.3607 19.396C45.0007 18.66 45.3207 17.516 45.3207 15.964V6.7H49.1607V16.108C49.1607 18.572 48.4887 20.468 47.1447 21.796C45.8167 23.124 43.9527 23.788 41.5527 23.788ZM60.5867 10.396C62.1867 10.396 63.4747 10.876 64.4507 11.836C65.4427 12.796 65.9387 14.22 65.9387 16.108V23.5H62.1947V16.684C62.1947 15.66 61.9707 14.9 61.5227 14.404C61.0747 13.892 60.4267 13.636 59.5787 13.636C58.6347 13.636 57.8827 13.932 57.3227 14.524C56.7627 15.1 56.4827 15.964 56.4827 17.116V23.5H52.7387V10.588H56.3147V12.1C56.8107 11.556 57.4267 11.14 58.1627 10.852C58.8987 10.548 59.7067 10.396 60.5867 10.396ZM69.3325 10.588H73.0765V23.5H69.3325V10.588ZM71.2045 8.788C70.5165 8.788 69.9565 8.588 69.5245 8.188C69.0925 7.788 68.8765 7.292 68.8765 6.7C68.8765 6.108 69.0925 5.612 69.5245 5.212C69.9565 4.812 70.5165 4.612 71.2045 4.612C71.8925 4.612 72.4525 4.804 72.8845 5.188C73.3165 5.572 73.5325 6.052 73.5325 6.628C73.5325 7.252 73.3165 7.772 72.8845 8.188C72.4525 8.588 71.8925 8.788 71.2045 8.788ZM89.1512 14.764C90.1112 15.068 90.8632 15.58 91.4072 16.3C91.9512 17.004 92.2232 17.876 92.2232 18.916C92.2232 20.388 91.6472 21.524 90.4952 22.324C89.3592 23.108 87.6952 23.5 85.5032 23.5H76.8152V6.7H85.0232C87.0712 6.7 88.6392 7.092 89.7272 7.876C90.8312 8.66 91.3832 9.724 91.3832 11.068C91.3832 11.884 91.1832 12.612 90.7832 13.252C90.3992 13.892 89.8552 14.396 89.1512 14.764ZM80.6792 9.628V13.588H84.5432C85.5032 13.588 86.2312 13.42 86.7272 13.084C87.2232 12.748 87.4712 12.252 87.4712 11.596C87.4712 10.94 87.2232 10.452 86.7272 10.132C86.2312 9.796 85.5032 9.628 84.5432 9.628H80.6792ZM85.2152 20.572C86.2392 20.572 87.0072 20.404 87.5192 20.068C88.0472 19.732 88.3112 19.212 88.3112 18.508C88.3112 17.116 87.2792 16.42 85.2152 16.42H80.6792V20.572H85.2152ZM94.9028 10.588H98.6468V23.5H94.9028V10.588ZM96.7748 8.788C96.0868 8.788 95.5268 8.588 95.0948 8.188C94.6628 7.788 94.4468 7.292 94.4468 6.7C94.4468 6.108 94.6628 5.612 95.0948 5.212C95.5268 4.812 96.0868 4.612 96.7748 4.612C97.4628 4.612 98.0228 4.804 98.4548 5.188C98.8868 5.572 99.1028 6.052 99.1028 6.628C99.1028 7.252 98.8868 7.772 98.4548 8.188C98.0228 8.588 97.4628 8.788 96.7748 8.788ZM102.122 5.692H105.866V23.5H102.122V5.692ZM109.34 5.692H113.084V23.5H109.34V5.692Z" fill="#2952BB"/>
</svg>
