<svg width="34" height="34" viewBox="0 0 34 34" fill="none" xmlns="http://www.w3.org/2000/svg">
<rect width="34" height="34" rx="5" fill="#FF2E2E"/>
<path d="M22.7158 24.2256C21.1686 25.7728 17.2064 24.319 13.8659 20.9785C10.5254 17.6381 9.07168 13.6758 10.6188 12.1287L11.6375 11.11C12.3408 10.4067 13.4996 10.4253 14.2258 11.1515L15.8036 12.7294C16.5298 13.4555 16.5484 14.6143 15.8452 15.3176L15.6264 15.5364C15.2467 15.9161 15.2095 16.5286 15.5623 16.9562C15.9026 17.3686 16.2695 17.7793 16.6673 18.1771C17.0651 18.5749 17.4759 18.9418 17.8883 19.2821C18.3158 19.6349 18.9283 19.5978 19.308 19.2181L19.5268 18.9993C20.2301 18.296 21.3889 18.3146 22.1151 19.0408L23.693 20.6187C24.4191 21.3449 24.4377 22.5037 23.7345 23.2069L22.7158 24.2256Z" stroke="white" stroke-width="1.1875"/>
<path d="M21.5793 15.3443C21.3862 14.8731 21.0983 14.4317 20.7157 14.0491C20.3547 13.6881 19.9413 13.4115 19.5 13.2191" stroke="white" stroke-width="1.1875" stroke-linecap="round"/>
<path d="M19.5 10.5251C20.5566 10.9079 21.5479 11.5228 22.395 12.3699C23.2634 13.2382 23.8877 14.2582 24.2682 15.3446" stroke="white" stroke-width="1.1875" stroke-linecap="round"/>
</svg>
