<svg width="18" height="18" viewBox="0 0 18 18" fill="none" xmlns="http://www.w3.org/2000/svg">
<path d="M2.9 11.25L2.9 11.2501L9.24938 0.84525L9.31606 0.770729C9.31602 0.770699 9.31599 0.770669 9.31596 0.770638C9.22901 0.692882 9.11646 0.649893 8.99981 0.649893C8.88319 0.649893 8.77065 0.692868 8.68371 0.770601C8.56369 0.877587 7.12043 2.18037 5.70641 4.11148C4.29436 6.0399 2.9 8.61027 2.9 11.25ZM3.85 11.25C3.85 9.14473 4.88037 7.02173 6.05462 5.28822C7.17938 3.62779 8.42778 2.33682 9 1.77881C9.57222 2.33682 10.8206 3.62779 11.9454 5.28822C13.1196 7.02173 14.15 9.14473 14.15 11.25C14.15 12.6159 13.6074 13.9258 12.6416 14.8916C11.6758 15.8574 10.3659 16.4 9 16.4C7.63414 16.4 6.32421 15.8574 5.3584 14.8916C4.39259 13.9258 3.85 12.6159 3.85 11.25Z" fill="#797979" stroke="#797979" stroke-width="0.2"/>
<path d="M7.43675 15.3226C7.37091 15.3227 7.30622 15.3054 7.24925 15.2724C6.56641 14.876 5.9994 14.3076 5.60475 13.6237C5.21009 12.9399 5.00158 12.1645 5 11.375C5 11.2755 5.03951 11.1802 5.10984 11.1098C5.18016 11.0395 5.27554 11 5.375 11C5.47446 11 5.56984 11.0395 5.64016 11.1098C5.71049 11.1802 5.75 11.2755 5.75 11.375C5.75129 12.0331 5.92509 12.6793 6.25409 13.2493C6.58309 13.8193 7.05577 14.293 7.625 14.6232C7.69636 14.6646 7.75207 14.7284 7.78352 14.8047C7.81497 14.8809 7.82039 14.9654 7.79895 15.0451C7.77751 15.1248 7.7304 15.1951 7.66492 15.2453C7.59944 15.2955 7.51924 15.3226 7.43675 15.3226Z" fill="#797979"/>
</svg>
