<svg width="34" height="34" viewBox="0 0 34 34" fill="none" xmlns="http://www.w3.org/2000/svg">
<rect width="34" height="34" rx="5" fill="#2EC0FF"/>
<path d="M16.6837 8.77062C16.5637 8.8776 15.1204 10.1804 13.7064 12.1115C12.2944 14.0399 10.9 16.6103 10.9 19.25L10.9 19.2501L17.2494 8.84526L17.3161 8.77074C17.316 8.77071 17.316 8.77068 17.316 8.77065C17.229 8.6929 17.1165 8.64991 16.9998 8.64991C16.8832 8.64991 16.7706 8.69288 16.6837 8.77062ZM16.6837 8.77062L16.7502 8.84526M16.6837 8.77062C16.6837 8.77066 16.6836 8.7707 16.6836 8.77074L16.7502 8.84526M16.7502 8.84526C16.5155 9.05451 11 14.0353 11 19.25L16.7502 8.84526ZM11.85 19.25C11.85 17.1447 12.8804 15.0217 14.0546 13.2882C15.1794 11.6278 16.4278 10.3368 17 9.77882C17.5722 10.3368 18.8206 11.6278 19.9454 13.2882C21.1196 15.0217 22.15 17.1447 22.15 19.25C22.15 20.6159 21.6074 21.9258 20.6416 22.8916C19.6758 23.8574 18.3659 24.4 17 24.4C15.6341 24.4 14.3242 23.8574 13.3584 22.8916C12.3926 21.9258 11.85 20.6159 11.85 19.25Z" fill="white" stroke="white" stroke-width="0.2"/>
<path d="M15.4367 23.3226C15.3709 23.3227 15.3062 23.3054 15.2492 23.2724C14.5664 22.876 13.9994 22.3076 13.6047 21.6237C13.2101 20.9399 13.0016 20.1645 13 19.375C13 19.2755 13.0395 19.1802 13.1098 19.1098C13.1802 19.0395 13.2755 19 13.375 19C13.4745 19 13.5698 19.0395 13.6402 19.1098C13.7105 19.1802 13.75 19.2755 13.75 19.375C13.7513 20.0331 13.9251 20.6793 14.2541 21.2493C14.5831 21.8193 15.0558 22.293 15.625 22.6232C15.6964 22.6646 15.7521 22.7284 15.7835 22.8047C15.815 22.8809 15.8204 22.9654 15.7989 23.0451C15.7775 23.1248 15.7304 23.1951 15.6649 23.2453C15.5994 23.2955 15.5192 23.3226 15.4367 23.3226Z" fill="white"/>
</svg>
