<svg width="14" height="18" viewBox="0 0 14 18" fill="none" xmlns="http://www.w3.org/2000/svg">
<path d="M6.68371 0.770601C6.56369 0.877587 5.12043 2.18037 3.70641 4.11148C2.29436 6.0399 0.9 8.61027 0.9 11.25L0.9 11.2501L7.24938 0.84525L7.31606 0.770729C7.31602 0.770699 7.31599 0.770669 7.31596 0.770638C7.22901 0.692882 7.11646 0.649893 6.99981 0.649893C6.88319 0.649893 6.77065 0.692868 6.68371 0.770601ZM6.68371 0.770601L6.75025 0.84525M6.68371 0.770601C6.68366 0.770644 6.68361 0.770686 6.68357 0.770729L6.75025 0.84525M6.75025 0.84525C6.5155 1.0545 1 6.03525 1 11.25L6.75025 0.84525ZM1.85 11.25C1.85 9.14473 2.88037 7.02173 4.05462 5.28822C5.17938 3.62779 6.42778 2.33682 7 1.77881C7.57222 2.33682 8.82062 3.62779 9.94538 5.28822C11.1196 7.02173 12.15 9.14473 12.15 11.25C12.15 12.6159 11.6074 13.9258 10.6416 14.8916C9.67579 15.8574 8.36586 16.4 7 16.4C5.63414 16.4 4.32421 15.8574 3.3584 14.8916C2.39259 13.9258 1.85 12.6159 1.85 11.25Z" fill="#797979" stroke="#797979" stroke-width="0.2"/>
</svg>
